<?xml version="1.0" encoding="UTF-8"?>
<svg xmlns="http://www.w3.org/2000/svg" xmlns:xlink="http://www.w3.org/1999/xlink" width="100.242188pt" height="81.460938pt" viewBox="0 0 100.242188 81.460938" version="1.1">
<defs>
<clipPath id="clip1">
  <path d="M 0 0 L 100.242188 0 L 100.242188 81.460938 L 0 81.460938 Z M 0 0 "/>
</clipPath>
</defs>
<g id="surface1">
<g clip-path="url(#clip1)" clip-rule="nonzero">
<path style=" stroke:none;fill-rule:nonzero;fill:rgb(0%,0%,0%);fill-opacity:1;" d="M 100.242188 9.640625 C 96.546875 11.28125 92.585938 12.382813 88.421875 12.882813 C 92.671875 10.335938 95.9375 6.304688 97.46875 1.507813 C 93.5 3.859375 89.085938 5.570313 84.40625 6.492188 C 80.65625 2.492188 75.3125 0 69.398438 0 C 58.039063 0 48.828125 9.203125 48.828125 20.5625 C 48.828125 22.171875 49.015625 23.742188 49.367188 25.25 C 32.273438 24.390625 17.125 16.203125 6.976563 3.757813 C 5.203125 6.804688 4.195313 10.335938 4.195313 14.101563 C 4.195313 21.234375 7.820313 27.53125 13.34375 31.226563 C 9.96875 31.117188 6.796875 30.1875 4.023438 28.648438 C 4.023438 28.734375 4.023438 28.820313 4.023438 28.90625 C 4.023438 38.875 11.117188 47.179688 20.515625 49.078125 C 18.796875 49.546875 16.976563 49.796875 15.101563 49.796875 C 13.773438 49.796875 12.484375 49.671875 11.226563 49.421875 C 13.851563 57.585938 21.445313 63.546875 30.4375 63.710938 C 23.40625 69.226563 14.539063 72.507813 4.898438 72.507813 C 3.234375 72.507813 1.601563 72.414063 0 72.21875 C 9.09375 78.0625 19.90625 81.460938 31.523438 81.460938 C 69.351563 81.460938 90.039063 50.125 90.039063 22.953125 C 90.039063 22.0625 90.015625 21.164063 89.984375 20.289063 C 94 17.390625 97.484375 13.765625 100.242188 9.640625 Z M 100.242188 9.640625 "/>
</g>
</g>
</svg>
