<svg width="22" height="12" viewBox="0 0 22 12" fill="none" xmlns="http://www.w3.org/2000/svg">
<path fill-rule="evenodd" clip-rule="evenodd" d="M21.5791 0.979094L19.7721 0.121094L19.3431 1.02409C18.0061 3.83809 15.9321 5.80409 13.5421 6.62609L13.3411 6.68409C12.5841 6.92209 11.8001 7.05709 10.9961 7.05709C7.56406 7.05609 4.44406 4.80109 2.65006 1.02409L2.22106 0.121094L0.414062 0.979094L0.843062 1.88209C1.44406 3.14609 2.18006 4.26109 3.01606 5.21909L0.803062 7.43409L2.21706 8.84709L4.44306 6.62009C5.34206 7.36409 6.32306 7.94709 7.36106 8.35709L6.50006 11.3201L8.42106 11.8781L9.28506 8.90309C9.84506 9.00209 10.4151 9.05709 10.9951 9.05709H10.9981C11.5521 9.05709 12.0971 9.00809 12.6321 8.91809L13.4921 11.8781L15.4121 11.3201L14.5601 8.38409C15.6081 7.97909 16.6001 7.40109 17.5081 6.65709L19.6971 8.84709L21.1121 7.43409L18.9401 5.26109C19.7921 4.29409 20.5401 3.16509 21.1501 1.88209L21.5791 0.979094Z" fill="#080708" fill-opacity="0.6"/>
</svg>
