<?xml version="1.0" encoding="UTF-8"?>
<svg xmlns="http://www.w3.org/2000/svg" xmlns:xlink="http://www.w3.org/1999/xlink" width="20pt" height="19.515503pt" viewBox="0 0 20 19.515503" version="1.1">
<g id="surface1">
<path style=" stroke:none;fill-rule:nonzero;fill:rgb(0%,0%,0%);fill-opacity:1;" d="M 10 0 C 8.6875 0 7.386719 0.257813 6.171875 0.761719 C 4.960938 1.265625 3.859375 2 2.929688 2.929688 C 1.054688 4.804688 0 7.347656 0 10 C 0 14.421875 2.871094 18.171875 6.839844 19.5 C 7.339844 19.578125 7.5 19.269531 7.5 19 C 7.5 18.769531 7.5 18.140625 7.5 17.308594 C 4.730469 17.910156 4.140625 15.96875 4.140625 15.96875 C 3.679688 14.808594 3.03125 14.5 3.03125 14.5 C 2.121094 13.878906 3.101563 13.898438 3.101563 13.898438 C 4.101563 13.96875 4.628906 14.929688 4.628906 14.929688 C 5.5 16.449219 6.96875 16 7.539063 15.761719 C 7.628906 15.109375 7.890625 14.671875 8.171875 14.421875 C 5.949219 14.171875 3.621094 13.308594 3.621094 9.5 C 3.621094 8.390625 4 7.5 4.648438 6.789063 C 4.550781 6.539063 4.199219 5.5 4.75 4.148438 C 4.75 4.148438 5.589844 3.878906 7.5 5.171875 C 8.289063 4.949219 9.148438 4.839844 10 4.839844 C 10.851563 4.839844 11.710938 4.949219 12.5 5.171875 C 14.410156 3.878906 15.25 4.148438 15.25 4.148438 C 15.800781 5.5 15.449219 6.539063 15.351563 6.789063 C 16 7.5 16.378906 8.390625 16.378906 9.5 C 16.378906 13.320313 14.039063 14.160156 11.808594 14.410156 C 12.171875 14.71875 12.5 15.328125 12.5 16.261719 C 12.5 17.601563 12.5 18.679688 12.5 19 C 12.5 19.269531 12.660156 19.589844 13.171875 19.5 C 17.140625 18.160156 20 14.421875 20 10 C 20 8.6875 19.742188 7.386719 19.238281 6.171875 C 18.734375 4.960938 18 3.859375 17.070313 2.929688 C 16.140625 2 15.039063 1.265625 13.828125 0.761719 C 12.613281 0.257813 11.3125 0 10 0 Z M 10 0 "/>
</g>
</svg>
