<svg xmlns="http://www.w3.org/2000/svg" xmlns:xlink="http://www.w3.org/1999/xlink" version="1.1" width="19.46997pt" height="20pt" viewBox="0 0 19.46997 20">
<path transform="matrix(1,0,0,-1,0,20)" d="M19.32 10.9H10.150001V8.17H16.66C16.33 4.360001 13.16 2.73 10.16 2.73 6.33 2.73 2.97 5.75 2.97 10 2.97 14.1 6.17 17.27 10.17 17.27 13.26 17.27 15.070001 15.3 15.070001 15.3L16.97 17.28C16.97 17.28 14.530001 20 10.070001 20 4.390001 20 0 15.2 0 10 0 4.95 4.13 0 10.22 0 15.57 0 19.47 3.67 19.47 9.09 19.47 10.24 19.32 10.9 19.32 10.9Z"/>
</svg>
