<svg xmlns="http://www.w3.org/2000/svg" xmlns:xlink="http://www.w3.org/1999/xlink" version="1.1" width="42pt" height="42pt" viewBox="0 0 42 42">
<path transform="matrix(1,0,0,-1,0,42)" d="M37 42H5C2.24 42 0 39.76 0 37V5C0 2.240002 2.24 0 5 0H37C39.76 0 42 2.240002 42 5V37C42 39.76 39.76 42 37 42ZM13 26V7H7V26H13ZM7 31.529999C7 32.93 8.2 34 10 34 11.8 34 12.93 32.93 13 31.529999 13 30.130002 11.88 29 10 29 8.2 29 7 30.130002 7 31.529999ZM35 7H29C29 7 29 16.26 29 17 29 19 28 21 25.5 21.04H25.42C23 21.04 22 18.98 22 17 22 16.09 22 7 22 7H16V26H22V23.44C22 23.44 23.93 26 27.81 26 31.779999 26 35 23.27 35 17.74V7Z"/>
</svg>
