<svg width="22" height="15" viewBox="0 0 22 15" fill="none" xmlns="http://www.w3.org/2000/svg">
<path d="M11.0028 11.5769C12.1359 11.5769 13.0983 11.1803 13.89 10.3871C14.6816 9.59394 15.0775 8.6308 15.0775 7.4977C15.0775 6.36462 14.6809 5.40224 13.8877 4.61058C13.0945 3.81891 12.1314 3.42308 10.9983 3.42308C9.8652 3.42308 8.90283 3.81966 8.11116 4.61282C7.3195 5.40601 6.92366 6.36915 6.92366 7.50225C6.92366 8.63533 7.32025 9.59771 8.11341 10.3894C8.9066 11.181 9.86974 11.5769 11.0028 11.5769ZM11.0006 10.2C10.2506 10.2 9.61306 9.93748 9.08806 9.41248C8.56306 8.88748 8.30056 8.24998 8.30056 7.49998C8.30056 6.74998 8.56306 6.11248 9.08806 5.58748C9.61306 5.06248 10.2506 4.79998 11.0006 4.79998C11.7506 4.79998 12.3881 5.06248 12.9131 5.58748C13.4381 6.11248 13.7006 6.74998 13.7006 7.49998C13.7006 8.24998 13.4381 8.88748 12.9131 9.41248C12.3881 9.93748 11.7506 10.2 11.0006 10.2ZM11.0019 14.5C8.70232 14.5 6.607 13.8657 4.71596 12.5971C2.82495 11.3285 1.43265 9.62946 0.539062 7.49998C1.43265 5.37049 2.8245 3.67146 4.71461 2.40288C6.60471 1.13429 8.69957 0.5 10.9992 0.5C13.2988 0.5 15.3941 1.13429 17.2852 2.40288C19.1762 3.67146 20.5685 5.37049 21.4621 7.49998C20.5685 9.62946 19.1766 11.3285 17.2865 12.5971C15.3964 13.8657 13.3016 14.5 11.0019 14.5ZM11.0006 13C12.8839 13 14.6131 12.5041 16.1881 11.5125C17.7631 10.5208 18.9672 9.18331 19.8006 7.49998C18.9672 5.81664 17.7631 4.47914 16.1881 3.48748C14.6131 2.49581 12.8839 1.99998 11.0006 1.99998C9.11723 1.99998 7.38806 2.49581 5.81306 3.48748C4.23806 4.47914 3.0339 5.81664 2.20056 7.49998C3.0339 9.18331 4.23806 10.5208 5.81306 11.5125C7.38806 12.5041 9.11723 13 11.0006 13Z" fill="#080708" fill-opacity="0.6"/>
</svg>
